<svg id="Layer_1" data-name="Layer 1" xmlns="http://www.w3.org/2000/svg" viewBox="0 0 512 512"><title>safari-pinned-tab</title><path d="M170.1,121V225.25c-8.51-8-16.23-15.26-23.92-22.53Q117,175.12,87.87,147.41a9.22,9.22,0,0,1-2.75-5.87C85,107,85,72.55,85,38.05c0-.81.11-1.62.19-2.72,1.43-.12,2.7-.32,4-.32,58.49,0,117-.43,175.48.3,40.7.51,78.65,11.74,112.11,35.41,53,37.49,85.31,88.23,94.27,152.91,7.32,52.81.86,103.59-24.92,151a219.44,219.44,0,0,1-61,70.54A163.89,163.89,0,0,1,362,460.22c-20.23,10.5-45.49,2.13-56.24-18a42.56,42.56,0,0,1,16.4-56.81c36.6-21.15,56.94-53.54,63.72-94.62,4.67-28.29,3.61-56.54-6-83.81-13.88-39.39-40-67.24-80.32-79.89a143.69,143.69,0,0,0-38.23-6.12c-29.14-.88-58.32-.28-87.49-.27C172.84,120.67,171.86,120.85,170.1,121Z"/><path d="M119.78,319.29C109.4,309,100.32,299.9,91.25,290.84c-14.38-14.37-28.82-28.68-43.1-43.15-8.21-8.32-10.13-19.29-5.56-29.46A26,26,0,0,1,67.48,203a26.37,26.37,0,0,1,17.79,8.07Q138.16,263.9,191,316.79a17.15,17.15,0,0,1,1.34,1.8c-1,1.14-2,2.27-3,3.31q-52,52-103.91,103.94c-7.66,7.67-16.79,10.18-27,7s-16.31-10.64-17.87-21.34c-1.29-8.89,1.86-16.3,8.13-22.57q33.09-33,66.14-66.06A40.15,40.15,0,0,1,119.78,319.29Z"/><path d="M193.58,426q25,0,50,0c15.69,0,27.38,11.24,27.45,26.26.07,15.27-11.62,26.69-27.54,26.72q-50,.08-100,0c-15.81,0-27.61-11.6-27.51-26.8.1-14.9,11.93-26.15,27.6-26.17Q168.59,426,193.58,426Z"/></svg>